HIERARCHY
ROOT joint_Root
{
	OFFSET 0.0 0.0 0.0
	CHANNELS 6 Xposition Yposition Zposition Zrotation Xrotation Yrotation 
	JOINT Hips
	{
		OFFSET -0.726466 93.3139 -2.00062
		CHANNELS 6 Xposition Yposition Zposition Zrotation Xrotation Yrotation 
		JOINT Spine
		{
			OFFSET 15.7357 0.0 0.0
			CHANNELS 6 Xposition Yposition Zposition Zrotation Xrotation Yrotation 
			JOINT Chest
			{
				OFFSET 8.98455 -0.406207 0.0
				CHANNELS 6 Xposition Yposition Zposition Zrotation Xrotation Yrotation 
				JOINT Neck
				{
					OFFSET 16.3773 0.0 0.0
					CHANNELS 6 Xposition Yposition Zposition Zrotation Xrotation Yrotation 
					JOINT Head
					{
						OFFSET 6.45672 0.0 0.0
						CHANNELS 6 Xposition Yposition Zposition Zrotation Xrotation Yrotation 
						End Site
						{
							OFFSET 0.0 0.0 0.0
						}
					}
				}
				JOINT Shoulder_L
				{
					OFFSET 12.9942 -0.242716 4.98039
					CHANNELS 6 Xposition Yposition Zposition Zrotation Xrotation Yrotation 
					JOINT UpperArm_L
					{
						OFFSET 5.34809 0.0 0.0
						CHANNELS 6 Xposition Yposition Zposition Zrotation Xrotation Yrotation 
						JOINT LowerArm_L
						{
							OFFSET 24.3286 1.87007e-05 0.0
							CHANNELS 6 Xposition Yposition Zposition Zrotation Xrotation Yrotation 
							JOINT Hand_L
							{
								OFFSET 22.2916 0.0 0.0
								CHANNELS 6 Xposition Yposition Zposition Zrotation Xrotation Yrotation 
								End Site
								{
									OFFSET 0.0 0.0 0.0
								}
							}
						}
					}
				}
				JOINT Shoulder_R
				{
					OFFSET 12.9945 -0.242716 -4.98039
					CHANNELS 6 Xposition Yposition Zposition Zrotation Xrotation Yrotation 
					JOINT UpperArm_R
					{
						OFFSET -5.34813 0.0 0.0
						CHANNELS 6 Xposition Yposition Zposition Zrotation Xrotation Yrotation 
						JOINT LowerArm_R
						{
							OFFSET -24.3289 0.000322201 0.0
							CHANNELS 6 Xposition Yposition Zposition Zrotation Xrotation Yrotation 
							JOINT Hand_R
							{
								OFFSET -22.2915 -0.000108084 0.0
								CHANNELS 6 Xposition Yposition Zposition Zrotation Xrotation Yrotation 
								End Site
								{
									OFFSET 0.0 0.0 0.0
								}
							}
						}
					}
				}
			}
		}
		JOINT UpperLeg_L
		{
			OFFSET -2.19248 -6.46944 0.0
			CHANNELS 6 Xposition Yposition Zposition Zrotation Xrotation Yrotation 
			JOINT LowerLeg_L
			{
				OFFSET 39.0811 0.0 -1.23785e-05
				CHANNELS 6 Xposition Yposition Zposition Zrotation Xrotation Yrotation 
				JOINT Foot_L
				{
					OFFSET 40.9854 0.0 -1.26872e-05
					CHANNELS 6 Xposition Yposition Zposition Zrotation Xrotation Yrotation 
					JOINT Toes_L
					{
						OFFSET 11.7543 0.0 0.0
						CHANNELS 6 Xposition Yposition Zposition Zrotation Xrotation Yrotation 
						End Site
						{
							OFFSET 0.0 0.0 0.0
						}
					}
				}
			}
		}
		JOINT UpperLeg_R
		{
			OFFSET -2.19251 6.46944 0.0
			CHANNELS 6 Xposition Yposition Zposition Zrotation Xrotation Yrotation 
			JOINT LowerLeg_R
			{
				OFFSET -39.0811 -0.00228153 -0.0401928
				CHANNELS 6 Xposition Yposition Zposition Zrotation Xrotation Yrotation 
				JOINT Foot_R
				{
					OFFSET -40.9854 0.0 0.0
					CHANNELS 6 Xposition Yposition Zposition Zrotation Xrotation Yrotation 
					JOINT Toes_R
					{
						OFFSET -11.7543 0.0 0.0
						CHANNELS 6 Xposition Yposition Zposition Zrotation Xrotation Yrotation 
						End Site
						{
							OFFSET 0.0 0.0 0.0
						}
					}
				}
			}
		}
	}
}
MOTION
Frames:	9
Frame Time:	0.0333333
0.000000 0.000000 0.000000 0.000000 0.000000 -0.000000 -0.153204 92.151100 -0.326104 88.307100 1.107960 6.682290 15.735700 0.000005 -0.000001 79.028200 85.888300 -78.596300 8.984550 -0.406207 -0.000000 0.313442 -1.592730 0.867532 16.377300 -0.000001 -0.000001 5.681100 -2.589060 0.693414 6.456720 -0.000001 -0.000000 9.481310 -3.223030 -0.802107 12.994200 -0.242716 4.980390 -86.939300 -9.708960 -72.408400 5.348090 -0.000007 -0.000001 -87.452100 -26.241100 -94.863600 24.328600 0.000019 0.000005 1.560550 0.231380 -81.568600 22.291600 -0.000001 0.000005 17.913500 5.603830 -11.574000 12.994500 -0.242716 -4.980390 91.073900 -3.646170 -73.576100 -5.348130 -0.000001 -0.000004 -78.518000 -25.683200 -99.783900 -24.328900 0.000322 -0.000009 12.184100 2.184950 -79.988200 -22.291500 -0.000108 -0.000004 19.520300 5.418390 -3.544860 -2.192480 -6.469440 -0.000000 -175.533000 -7.755940 -0.498271 39.081100 -0.000007 -0.000012 -0.108384 0.245922 23.784400 40.985400 -0.000006 -0.000013 0.503425 4.942550 -66.869100 11.754300 -0.000000 0.000003 -0.000044 -0.000508 -16.597300 -2.192510 6.469440 -0.000001 178.201000 16.093900 -177.276000 -39.081100 -0.002282 -0.040193 -0.048634 0.140172 20.337000 -40.985400 0.000008 0.000006 2.784030 7.105700 -66.553000 -11.754300 -0.000006 -0.000006 -0.008170 -0.089414 -20.214200
0.000000 0.000000 0.000000 0.000000 0.000000 -0.000000 -0.134293 92.144500 -0.331844 88.302800 1.010140 6.721020 15.735700 0.000005 -0.000001 79.178900 85.869600 -78.729700 8.984550 -0.406207 -0.000000 0.354529 -1.579490 0.902701 16.377300 -0.000001 -0.000001 5.721490 -2.597880 0.685567 6.456720 -0.000001 -0.000000 9.543640 -3.273980 -0.844311 12.994200 -0.242716 4.980390 -86.925600 -9.722820 -72.357400 5.348090 -0.000007 -0.000001 -87.610200 -26.267200 -94.944000 24.328600 0.000019 0.000005 1.811400 0.272061 -81.461400 22.291600 -0.000001 0.000005 17.826400 5.601830 -11.452400 12.994500 -0.242716 -4.980390 91.086000 -3.690310 -73.589100 -5.348130 -0.000001 -0.000004 -78.623800 -25.589100 -99.937400 -24.328900 0.000322 -0.000009 12.152300 2.245150 -79.691100 -22.291500 -0.000108 -0.000004 19.660800 5.418720 -3.555940 -2.192480 -6.469440 -0.000000 -175.537000 -7.807640 -0.481077 39.081100 -0.000007 -0.000012 -0.107536 0.243394 23.836900 40.985400 -0.000006 -0.000013 0.513386 4.897160 -66.895500 11.754300 -0.000000 0.000003 -0.000057 -0.000630 -16.602000 -2.192510 6.469440 -0.000001 178.185000 16.015300 -177.275000 -39.081100 -0.002282 -0.040193 -0.051159 0.146595 20.386900 -40.985400 0.000008 0.000006 2.728160 7.129680 -66.555300 -11.754300 -0.000006 -0.000006 -0.008270 -0.090220 -20.247200
0.000000 0.000000 0.000000 0.000000 0.000000 -0.000000 -0.123399 92.146600 -0.362247 88.267600 0.950118 6.657070 15.735700 0.000005 -0.000001 79.232800 85.888400 -78.763100 8.984550 -0.406207 -0.000000 0.319279 -1.566320 0.943133 16.377300 -0.000001 -0.000001 5.808190 -2.616250 0.696352 6.456720 -0.000001 -0.000000 9.610230 -3.317520 -0.842369 12.994200 -0.242716 4.980390 -86.906500 -9.732640 -72.271300 5.348090 -0.000007 -0.000001 -87.710500 -26.259700 -95.123400 24.328600 0.000019 0.000005 1.797020 0.274520 -81.317400 22.291600 -0.000001 0.000005 17.872700 5.601250 -11.417500 12.994500 -0.242716 -4.980390 91.096600 -3.707390 -73.510000 -5.348130 -0.000001 -0.000004 -78.637300 -25.520500 -100.131000 -24.328900 0.000322 -0.000009 11.875800 2.262570 -79.369400 -22.291500 -0.000108 -0.000004 19.733300 5.420820 -3.626710 -2.192480 -6.469440 -0.000000 -175.512000 -7.852310 -0.570143 39.081100 -0.000007 -0.000012 -0.107675 0.243401 23.863700 40.985400 -0.000006 -0.000013 0.511565 4.870850 -66.894400 11.754300 -0.000000 0.000003 -0.000047 -0.000538 -16.598500 -2.192510 6.469440 -0.000001 178.255000 15.993600 -177.366000 -39.081100 -0.002282 -0.040193 -0.048647 0.139865 20.382800 -40.985400 0.000008 0.000006 2.796010 7.129570 -66.540200 -11.754300 -0.000006 -0.000006 -0.008246 -0.090031 -20.239500
0.000000 0.000000 0.000000 0.000000 0.000000 -0.000000 -0.117367 92.149000 -0.365468 88.277800 0.912627 6.730790 15.735700 0.000005 -0.000001 79.308000 85.866100 -78.831700 8.984550 -0.406207 -0.000000 0.365277 -1.564220 0.957058 16.377300 -0.000001 -0.000001 5.933600 -2.641650 0.758525 6.456720 -0.000001 -0.000000 9.708190 -3.328420 -0.941810 12.994200 -0.242716 4.980390 -86.911300 -9.695470 -72.233900 5.348090 -0.000007 -0.000001 -87.620000 -26.331000 -95.276600 24.328600 0.000019 0.000005 1.842180 0.285845 -81.183200 22.291600 -0.000001 0.000005 18.065500 5.600770 -11.388700 12.994500 -0.242716 -4.980390 91.095400 -3.683420 -73.424900 -5.348130 -0.000001 -0.000004 -78.358200 -25.595700 -100.277000 -24.328900 0.000322 -0.000009 11.779700 2.298210 -79.117500 -22.291500 -0.000108 -0.000004 19.772100 5.415760 -3.456750 -2.192480 -6.469440 -0.000000 -175.516000 -7.866250 -0.478657 39.081100 -0.000007 -0.000012 -0.107674 0.243707 23.836800 40.985400 -0.000006 -0.000013 0.513289 4.854170 -66.882900 11.754300 -0.000000 0.000003 -0.000049 -0.000557 -16.599200 -2.192510 6.469440 -0.000001 178.216000 15.956600 -177.299000 -39.081100 -0.002282 -0.040193 -0.048685 0.139966 20.383000 -40.985400 0.000008 0.000006 2.805330 7.181770 -66.532200 -11.754300 -0.000006 -0.000006 -0.008019 -0.088189 -20.164200
0.000000 0.000000 0.000000 0.000000 0.000000 -0.000000 -0.110043 92.154500 -0.386236 88.267500 0.925269 6.680250 15.735700 0.000005 -0.000001 79.291800 85.866400 -78.807400 8.984550 -0.406207 -0.000000 0.364303 -1.566930 0.973249 16.377300 -0.000001 -0.000001 5.982170 -2.627430 0.741292 6.456720 -0.000001 -0.000000 9.839730 -3.326070 -0.913634 12.994200 -0.242716 4.980390 -86.899600 -9.691760 -72.164500 5.348090 -0.000007 -0.000001 -87.575100 -26.415300 -95.401300 24.328600 0.000019 0.000005 1.916180 0.294300 -81.271800 22.291600 -0.000001 0.000005 17.983200 5.599950 -11.339600 12.994500 -0.242716 -4.980390 91.089800 -3.651950 -73.371100 -5.348130 -0.000001 -0.000004 -77.805800 -26.043700 -100.266000 -24.328900 0.000322 -0.000009 11.539000 2.273730 -79.005200 -22.291500 -0.000108 -0.000004 19.804300 5.418350 -3.543520 -2.192480 -6.469440 -0.000000 -175.517000 -7.880770 -0.546753 39.081100 -0.000007 -0.000012 -0.107509 0.243448 23.826700 40.985400 -0.000006 -0.000013 0.527055 4.891600 -66.857700 11.754300 -0.000000 0.000003 -0.000046 -0.000528 -16.598100 -2.192510 6.469440 -0.000001 178.236000 16.016300 -177.344000 -39.081100 -0.002282 -0.040193 -0.047341 0.136656 20.341000 -40.985400 0.000008 0.000006 2.772760 7.192800 -66.491100 -11.754300 -0.000006 -0.000006 -0.007969 -0.087778 -20.147400
0.000000 0.000000 0.000000 0.000000 0.000000 -0.000000 -0.107936 92.151100 -0.401028 88.280600 0.897393 6.731730 15.735700 0.000005 -0.000001 79.582500 85.833600 -79.091700 8.984550 -0.406207 -0.000000 0.436583 -1.537660 0.986816 16.377300 -0.000001 -0.000001 5.999390 -2.594620 0.725039 6.456720 -0.000001 -0.000000 9.864340 -3.297870 -1.002390 12.994200 -0.242716 4.980390 -86.897300 -9.627460 -72.041600 5.348090 -0.000007 -0.000001 -87.269300 -26.541800 -95.211400 24.328600 0.000019 0.000005 1.915950 0.284230 -81.565400 22.291600 -0.000001 0.000005 18.042800 5.599610 -11.319000 12.994500 -0.242716 -4.980390 91.067100 -3.555480 -73.282100 -5.348130 -0.000001 -0.000004 -76.738400 -26.764600 -99.933700 -24.328900 0.000322 -0.000009 11.666100 2.271920 -79.133800 -22.291500 -0.000108 -0.000004 19.852300 5.417600 -3.518250 -2.192480 -6.469440 -0.000000 -175.533000 -7.865530 -0.494551 39.081100 -0.000007 -0.000012 -0.106623 0.241333 23.836300 40.985400 -0.000006 -0.000013 0.523005 4.846660 -66.866600 11.754300 -0.000000 0.000003 -0.000049 -0.000561 -16.599300 -2.192510 6.469440 -0.000001 178.207000 15.952500 -177.319000 -39.081100 -0.002282 -0.040193 -0.049398 0.141900 20.381200 -40.985400 0.000008 0.000006 2.755100 7.199400 -66.501600 -11.754300 -0.000006 -0.000006 -0.007988 -0.087935 -20.153900
0.000000 0.000000 0.000000 0.000000 0.000000 -0.000000 -0.089479 92.155700 -0.423846 88.281900 0.897979 6.671020 15.735700 0.000005 -0.000001 79.860300 85.822100 -79.363100 8.984550 -0.406207 -0.000000 0.466214 -1.502220 0.999824 16.377300 -0.000001 -0.000001 5.950260 -2.517650 0.659270 6.456720 -0.000001 -0.000000 9.846230 -3.219880 -1.044930 12.994200 -0.242716 4.980390 -86.913700 -9.463520 -71.844300 5.348090 -0.000007 -0.000001 -86.511500 -26.737700 -94.488700 24.328600 0.000019 0.000005 1.442810 0.193098 -82.380300 22.291600 -0.000001 0.000005 18.230700 5.600310 -11.360600 12.994500 -0.242716 -4.980390 91.017000 -3.371480 -73.203300 -5.348130 -0.000001 -0.000004 -75.162500 -27.861500 -99.017500 -24.328900 0.000322 -0.000009 11.639800 2.142020 -79.717900 -22.291500 -0.000108 -0.000004 19.791700 5.412900 -3.361570 -2.192480 -6.469440 -0.000000 -175.555000 -7.877940 -0.577849 39.081100 -0.000007 -0.000012 -0.106621 0.241422 23.828100 40.985400 -0.000006 -0.000013 0.534204 4.846720 -66.837600 11.754300 -0.000000 0.000003 -0.000044 -0.000511 -16.597400 -2.192510 6.469440 -0.000001 178.218000 15.965400 -177.404000 -39.081100 -0.002282 -0.040193 -0.049529 0.142381 20.364000 -40.985400 0.000008 0.000006 2.678370 7.202730 -66.450400 -11.754300 -0.000006 -0.000006 -0.008157 -0.089307 -20.209900
0.000000 0.000000 0.000000 0.000000 0.000000 -0.000000 -0.084722 92.168000 -0.475503 88.282400 0.893519 6.626700 15.735700 0.000005 -0.000001 80.101400 85.787000 -79.596600 8.984550 -0.406207 -0.000000 0.541495 -1.479800 1.015830 16.377300 -0.000001 -0.000001 5.885700 -2.425690 0.533365 6.456720 -0.000001 -0.000000 9.643350 -3.070980 -1.118060 12.994200 -0.242716 4.980390 -86.959300 -9.198620 -71.618400 5.348090 -0.000007 -0.000001 -85.103600 -27.216100 -92.762300 24.328600 0.000019 0.000005 0.846835 0.086982 -84.139200 22.291600 -0.000001 0.000005 18.425800 5.599140 -11.291300 12.994500 -0.242716 -4.980390 90.938100 -3.089670 -73.101600 -5.348130 -0.000001 -0.000004 -72.995000 -29.083800 -97.268800 -24.328900 0.000322 -0.000009 11.254000 1.823300 -80.917600 -22.291500 -0.000108 -0.000004 19.665900 5.410650 -3.286860 -2.192480 -6.469440 -0.000000 -175.583000 -7.843520 -0.636547 39.081100 -0.000007 -0.000012 -0.105645 0.239794 23.776600 40.985400 -0.000006 -0.000013 0.532284 4.802590 -66.774100 11.754300 -0.000000 0.000003 -0.000045 -0.000520 -16.597800 -2.192510 6.469440 -0.000001 178.239000 15.972000 -177.469000 -39.081100 -0.002282 -0.040193 -0.047467 0.136994 20.341200 -40.985400 0.000008 0.000006 2.844280 7.212310 -66.435500 -11.754300 -0.000006 -0.000006 -0.008150 -0.089252 -20.207600
0.000000 0.000000 0.000000 0.000000 0.000000 -0.000000 -0.072856 92.176200 -0.538500 88.296700 0.865403 6.486660 15.735700 0.000005 -0.000001 80.175700 85.756700 -79.651500 8.984550 -0.406207 -0.000000 0.603465 -1.480320 1.055330 16.377300 -0.000001 -0.000001 5.699720 -2.356330 0.487874 6.456720 -0.000001 -0.000000 9.391530 -2.856300 -1.460870 12.994200 -0.242716 4.980390 -87.071800 -8.718750 -71.353400 5.348090 -0.000007 -0.000001 -82.737600 -27.919100 -89.648000 24.328600 0.000019 0.000005 -0.036776 -0.001735 -87.100200 22.291600 -0.000001 0.000005 18.782600 5.600030 -11.343800 12.994500 -0.242716 -4.980390 90.829300 -2.682590 -72.814900 -5.348130 -0.000001 -0.000004 -70.134200 -29.960300 -94.555900 -24.328900 0.000322 -0.000009 10.119300 1.278250 -82.877900 -22.291500 -0.000108 -0.000004 19.584400 5.406760 -3.158320 -2.192480 -6.469440 -0.000000 -175.637000 -7.852940 -0.812131 39.081100 -0.000007 -0.000012 -0.105307 0.239295 23.752900 40.985400 -0.000006 -0.000013 0.537818 4.768760 -66.716100 11.754300 -0.000000 0.000003 -0.000041 -0.000472 -16.595900 -2.192510 6.469440 -0.000001 178.265000 15.960700 -177.669000 -39.081100 -0.002282 -0.040193 -0.048798 0.140685 20.327700 -40.985400 0.000008 0.000006 2.712630 7.227070 -66.348800 -11.754300 -0.000006 -0.000006 -0.008255 -0.090097 -20.242200
